<svg width="142" height="147" viewBox="0 0 142 147" fill="none" xmlns="http://www.w3.org/2000/svg">
<path fill-rule="evenodd" clip-rule="evenodd" d="M74.3758 24.5512C73.3736 22.5073 72.9477 20.2108 73.7444 17.9687C76.0402 11.5084 85.0917 15.4126 86.012 19.2134C86.9323 23.0142 84.3846 31.3867 81.8443 31.3632C80.8313 31.3539 78.9729 30.2492 77.2502 28.5145L76.0951 37.6966L68.4805 35.7181L74.3758 24.5512Z" fill="#E0AF91"/>
<path fill-rule="evenodd" clip-rule="evenodd" d="M77.1392 24.773C75.7093 26.2852 74.0376 27.2695 72.7329 26.9305C70.2547 26.2866 69.3805 22.6159 70.335 19.1616C70.3685 19.0402 70.4043 18.9203 70.4423 18.8019C67.3388 19.8652 64.3684 22.7786 60.8998 21.8774C56.1808 20.6513 56.8571 10.9345 63.4502 12.6476C67.9341 13.8126 69.9644 15.0196 71.6062 16.4509C72.2643 15.5235 73.074 14.8103 73.9393 14.3902C74.1582 14.2504 74.4645 14.1417 74.8421 14.0653C75.0753 14.0103 75.31 13.9771 75.5445 13.9672C76.8037 13.8565 78.5437 13.9998 80.4158 14.4189C80.7653 14.4972 81.1064 14.5821 81.437 14.6726C81.9107 12.9794 83.7083 11.9757 85.4572 12.4301C87.2095 12.8854 88.2494 14.6319 87.7798 16.3311C87.3258 17.9743 85.6263 18.9715 83.9301 18.6236C82.8943 18.6612 81.6071 18.552 80.2195 18.2865C80.2185 18.8035 80.1389 19.3704 79.9677 19.99C79.8165 20.537 79.594 21.1011 79.3165 21.6604C79.115 21.2428 78.7812 20.9177 78.3799 20.8135C77.2576 20.5219 76.2289 21.2142 75.9662 22.1648C75.6328 23.3713 76.1099 24.4307 77.1392 24.773Z" fill="#191847"/>
<path fill-rule="evenodd" clip-rule="evenodd" d="M63.2042 63.8752L87.6115 103.443L105.91 136.895H109.851L79.192 63.8752H63.2042Z" fill="#E0AF91"/>
<path fill-rule="evenodd" clip-rule="evenodd" d="M103.5 135.35C103.133 136.302 102.949 137.013 102.949 137.486C102.949 138.06 103.048 138.898 103.245 140C103.932 140 110.107 140 121.771 140C122.253 138.457 121.975 137.623 120.937 137.5C119.9 137.377 119.038 137.266 118.352 137.167L109.742 133.445C109.576 133.373 109.382 133.445 109.308 133.606C109.307 133.609 109.305 133.611 109.304 133.614L108.751 134.916C107.79 135.351 107.01 135.568 106.41 135.568C105.922 135.568 105.248 135.377 104.389 134.995C104.059 134.848 103.669 134.989 103.518 135.308C103.512 135.322 103.506 135.336 103.5 135.35Z" fill="#C6C1C1"/>
<path fill-rule="evenodd" clip-rule="evenodd" d="M100.828 131.538L108.429 129.308C105.099 119.655 101.017 109.032 96.1842 97.4384C91.3512 85.8452 86.1608 74.6575 80.613 63.8752H59.1457C65.3137 77.5143 71.8526 89.9072 78.7624 101.054C85.6722 112.2 93.0274 122.362 100.828 131.538Z" fill="#C0211C"/>
<path fill-rule="evenodd" clip-rule="evenodd" d="M61.6002 63.8752C59.2966 77.7797 54.8536 95.5442 54.4343 96.0925C54.1547 96.4579 44.0915 99.7278 24.2445 105.902L25.0959 109.272C48.7634 105.961 61.2341 103.392 62.5081 101.565C64.4191 98.825 73.961 77.1774 77.6568 63.8752H61.6002Z" fill="#E0AF91"/>
<path fill-rule="evenodd" clip-rule="evenodd" d="M31.2211 102.989L32.7207 108.417C50.4225 109.922 61.2689 108.834 65.2597 105.153C69.2504 101.472 73.7988 87.7128 78.9046 63.8752H58.4342C55.1993 83.395 53.3907 93.5646 53.0086 94.384C52.6264 95.2034 45.3639 98.0717 31.2211 102.989Z" fill="#B72F25"/>
<path fill-rule="evenodd" clip-rule="evenodd" d="M25.2165 104.498C24.1866 104.312 23.4319 104.26 22.9523 104.342C22.3689 104.442 21.5348 104.682 20.45 105.062C20.5693 105.718 21.6417 111.615 23.6671 122.754C25.3181 122.945 26.116 122.535 26.0609 121.523C26.0057 120.512 25.9689 119.669 25.9505 118.997L28.2357 110.128C28.2797 109.957 28.1726 109.784 27.9966 109.741C27.9936 109.741 27.9906 109.74 27.9876 109.739L26.5692 109.437C25.9613 108.595 25.6052 107.888 25.5009 107.315C25.4162 106.849 25.4932 106.172 25.732 105.285C25.8236 104.945 25.6133 104.597 25.2623 104.508C25.2471 104.504 25.2319 104.501 25.2165 104.498Z" fill="#C6BFBF"/>
<path fill-rule="evenodd" clip-rule="evenodd" d="M92.2149 61.3395L101.197 70.4511C103.863 71.6619 106.035 72.9727 107.715 74.3837C108.087 74.8514 108.479 75.7367 106.664 75.2851C104.85 74.8334 102.92 74.4374 102.556 75.0024C102.191 75.5674 103.172 76.4853 102.51 77.2184C102.068 77.7072 100.702 76.0587 98.4105 72.2729L88.9397 66.4171L92.2149 61.3395ZM46.0772 50.2952L51.5922 52.2695C42.6668 63.8619 37.9022 69.9835 37.2984 70.6343C35.94 72.0986 36.4702 75.2461 36.5893 76.8789C34.1414 77.0494 35.6353 73.7458 32.5302 74.0066C29.696 74.2446 27.1085 75.5751 24.9371 72.9112C24.6701 72.5837 24.5839 71.6749 25.723 71.3905C28.5608 70.6821 32.8255 69.1943 33.5942 68.4805C34.6425 67.507 38.8035 61.4453 46.0772 50.2952Z" fill="#E0AF91"/>
<path fill-rule="evenodd" clip-rule="evenodd" d="M94.4734 62.5492C95.8178 62.6838 97.2231 63.144 98.6794 63.9145C99.396 64.2937 99.6599 65.1644 99.2689 65.8593C99.0417 66.2629 98.6437 66.5184 98.2094 66.5874C98.4676 66.8476 98.7285 67.1071 98.9924 67.3659L95.4523 72.0739C85.4614 64.9048 75.8918 59.1515 72.7902 49.6058C71.7493 46.4021 74.0948 36.5253 74.6039 32.8733L78.3137 32.089C81.3785 42.58 86.2188 52.9697 94.4734 62.5492Z" fill="#D5BF88"/>
<path fill-rule="evenodd" clip-rule="evenodd" d="M56.3205 64.5098C66.2931 67.332 74.2977 68.7006 80.3343 68.6157C81.0822 68.6052 81.6004 65.5755 81.415 64.6922C78.5291 50.9365 76.8043 40.933 78.4288 31.9991C77.3818 32.3207 75.6907 32.1066 73.3557 31.3568C65.2399 39.462 60.358 49.5193 56.3205 64.5098Z" fill="#191847"/>
<path fill-rule="evenodd" clip-rule="evenodd" d="M54.1544 65.7074C53.8664 65.3332 53.7722 64.8301 53.9492 64.3585L54.2862 63.4606C54.5146 62.8521 55.1238 62.4848 55.7578 62.5194C55.9519 62.0674 56.1306 61.6159 56.2922 61.1651C57.658 57.3571 57.2412 53.3229 57.9799 49.5576C51.9958 52.9717 45.9783 59.6047 39.9276 69.4566L34.1351 66.6687C34.5209 65.8688 34.9132 65.0806 35.312 64.3042C34.6775 63.7951 34.1773 61.8738 34.8244 61.6773C35.4928 61.4743 36.181 61.3687 36.8875 61.358C45.4644 45.9548 56.8008 35.5556 70.8968 30.1605L72.6441 30.4593L74.5756 30.7896C70.9668 44.4941 80.4134 77.3764 70.5095 102.386C60.5297 102.824 47.9983 94.0107 33.7153 96.8977C36.1083 86.5532 48.2817 76.0015 54.1544 65.7074Z" fill="#CCB589"/>
<path fill-rule="evenodd" clip-rule="evenodd" d="M72.1757 30.7026L69.6019 35.3939L72.2843 39.6992L68.7139 42.1117L73.8435 55.5683L67.0717 41.856L70.5924 39.41L68.2087 35.603L72.1757 30.7026Z" fill="black" fill-opacity="0.1"/>
<path fill-rule="evenodd" clip-rule="evenodd" d="M70.8328 59.9049C70.1182 59.7828 69.6411 59.122 69.7671 58.429C69.8931 57.7361 70.5745 57.2734 71.2891 57.3955C72.0037 57.5177 72.4809 58.1785 72.3549 58.8715C72.2289 59.5644 71.5474 60.0271 70.8328 59.9049ZM71.1383 67.396C70.4237 67.2738 69.9466 66.613 70.0726 65.9201C70.1986 65.2271 70.88 64.7644 71.5946 64.8866C72.3092 65.0088 72.7864 65.6696 72.6604 66.3625C72.5344 67.0555 71.8529 67.5182 71.1383 67.396ZM70.1499 74.6658C69.4353 74.5437 68.9582 73.8829 69.0842 73.1899C69.2102 72.4969 69.8916 72.0343 70.6062 72.1564C71.3209 72.2786 71.798 72.9394 71.672 73.6324C71.546 74.3253 70.8645 74.788 70.1499 74.6658Z" fill="black" fill-opacity="0.4"/>
</svg>
