<svg width="127" height="163" viewBox="0 0 127 163" fill="none" xmlns="http://www.w3.org/2000/svg">
<path fill-rule="evenodd" clip-rule="evenodd" d="M58.0285 35.3958C56.4478 33.4264 55.3779 31.0127 55.5567 28.3082C56.0718 20.5156 66.2911 22.2299 68.279 26.1629C70.2668 30.0959 70.0306 40.0723 67.4615 40.7753C66.4369 41.0556 64.2543 40.3689 62.0329 38.9476L63.4272 49.4185H55.1942L58.0285 35.3958Z" fill="#E0AF91"/>
<path fill-rule="evenodd" clip-rule="evenodd" d="M63.5863 21.6299C62.5013 21.4411 59.5796 21.3112 59.0408 21.3113C58.6965 21.3113 58.3233 21.3948 58.1194 21.0592C57.9524 20.7844 58.0136 20.3196 57.9638 20.0007C57.9059 19.6302 57.8237 19.2645 57.7405 18.8998C57.5039 17.8618 57.1461 16.8743 56.6455 15.9472C55.7062 14.2077 54.3301 12.8452 52.5928 12.0524C50.6744 11.177 48.5035 10.9765 46.4399 11.1541C44.2316 11.3441 42.2326 12.1179 40.1477 12.8461C38.1608 13.54 36.0797 13.8131 34.0017 13.4743C31.908 13.1329 30.326 11.9283 28.56 10.7851C26.7521 9.61464 25.6373 8.82401 23.5 8.99998C21.5049 9.1643 18.7149 10.0638 17.0652 11.2319C15.5217 12.3248 15.5 15.9472 15.5 15.9472C15.5763 14.8446 15.7932 19.6831 17.0652 21.4424C18.9089 23.9925 19.2948 24.6349 22.1424 24.5693C23.7895 24.5315 25.4072 24.2123 26.9623 23.6318C29.0362 22.8575 30.8283 21.5451 32.7685 20.4803C33.679 19.9806 34.6202 19.5703 35.6067 19.2747C36.564 18.9877 37.5069 18.8561 38.3736 19.4699C39.2905 20.1193 40.1121 20.7572 41.1611 21.1637C42.1674 21.5537 43.2332 21.7719 44.3053 21.7631C46.3913 21.746 48.4475 21.0561 50.4734 20.594C52.1255 20.2172 53.8932 19.8417 55.5774 20.2039C56.2803 20.3551 57.3068 20.6671 57.5607 21.4424C53.2883 22.2643 51.6103 27.8729 52.8148 31.9902C53.4648 34.2124 57.3724 36.8102 58.8918 35.6419C59.8543 34.9018 59.2699 33.9301 58.8918 33.2887C58.1675 32.0603 57.9197 30.4825 59.2599 29.6273C60.4158 28.8897 61.6312 30.6412 61.6542 30.6393C61.9719 30.6127 64.7172 28.9647 66.6086 26.5599C68.4745 26.6773 68.7576 25.3713 68.3121 24.3033C67.8665 23.2352 65.0856 21.8911 63.5863 21.6299Z" fill="#191847"/>
<path d="M56 159C77.5391 159 95 142.435 95 122C95 101.565 77.5391 85 56 85C34.4609 85 17 101.565 17 122C17 142.435 34.4609 159 56 159Z" fill="#C5CFD6"/>
<path fill-rule="evenodd" clip-rule="evenodd" d="M101.68 138.871C97.2842 128.545 94.1056 119.553 92.8297 114.809C90.645 106.686 88.9831 99.5386 88.563 96.8693C87.5614 90.5041 96.2684 90.1335 97.4193 93.2969C99.1612 98.0848 102.202 113.816 105.856 137.577L101.68 138.871ZM50.6963 106.464C54.729 104.772 68.8514 99.4773 75.6625 97.9794C77.6198 97.5489 79.5169 97.149 81.3004 96.7876C86.6017 95.7133 89.3483 105.865 84.2425 106.645C71.5269 108.588 53.5005 110.594 51.9578 110.819C49.7957 111.134 48.1619 107.528 50.6963 106.464Z" fill="#E0AF91"/>
<path fill-rule="evenodd" clip-rule="evenodd" d="M84.5542 93.994L62.7411 82.2072V79.6413H65.3353C86.4384 85.3493 97.2221 89.0073 97.6863 90.6154C97.6913 90.6327 97.6959 90.65 97.7001 90.6674C97.7107 90.6822 97.7211 90.6971 97.7314 90.712C101.914 96.8173 104.418 126.624 105.24 128.856L97.2264 130.125C94.1608 118.058 84.3528 109.652 84.6133 95.2002C84.5429 94.7763 84.5252 94.3743 84.5542 93.994Z" fill="#1F28CF"/>
<path fill-rule="evenodd" clip-rule="evenodd" d="M64.5534 100.994C62.5576 100.57 60.7196 100.192 59.1469 99.8987C48.9883 98.0073 46.0259 92.2352 47.7774 79.6413L66.4946 79.6413C69.5521 80.5736 85.4416 87.6466 93.6858 91.4087C99.1422 93.8986 97.4221 102.874 94.3322 105.21C94.3154 105.354 94.2598 105.451 94.1607 105.495C77.5389 112.807 64.3894 108.97 59.9968 110.196L57.965 103.393L64.5534 100.994Z" fill="#2B44FF"/>
<path fill-rule="evenodd" clip-rule="evenodd" d="M52.0752 105.383C50.9861 105.494 50.213 105.667 49.7559 105.904C49.1999 106.192 48.4337 106.71 47.4574 107.459C47.772 108.144 50.5992 114.297 55.9391 125.918C57.6535 125.624 58.3328 124.93 57.977 123.835C57.6213 122.739 57.3344 121.825 57.1163 121.092L56.7774 110.647C56.7709 110.446 56.6121 110.289 56.4227 110.295C56.4195 110.296 56.4163 110.296 56.413 110.296L54.8993 110.397C54.0392 109.658 53.4717 108.989 53.1968 108.391C52.9735 107.905 52.85 107.138 52.8264 106.091L52.8264 106.091C52.8173 105.688 52.5029 105.37 52.1241 105.38C52.1077 105.38 52.0914 105.381 52.0752 105.383Z" fill="#E4E4E4"/>
<path fill-rule="evenodd" clip-rule="evenodd" d="M99.6792 136.956C99.2955 138.044 99.1036 138.857 99.1036 139.397C99.1036 140.054 99.2066 141.012 99.4127 142.272C100.13 142.272 106.58 142.272 118.761 142.272C119.264 140.507 118.973 139.555 117.89 139.414C116.807 139.273 115.907 139.146 115.191 139.033L106.198 134.778C106.025 134.696 105.822 134.778 105.745 134.962C105.743 134.965 105.742 134.968 105.741 134.971L105.163 136.46C104.16 136.956 103.345 137.205 102.718 137.205C102.209 137.205 101.505 136.986 100.608 136.55L100.608 136.55C100.263 136.382 99.8559 136.543 99.698 136.908C99.6912 136.924 99.685 136.94 99.6792 136.956Z" fill="#E4E4E4"/>
<path fill-rule="evenodd" clip-rule="evenodd" d="M84.0097 69.6704L96.4397 63.876C98.6171 61.5728 100.72 59.8223 102.748 58.6244C103.354 58.4195 104.39 58.3576 103.285 60.0712C102.179 61.7848 101.089 63.64 101.531 64.2405C101.973 64.8411 103.252 64.1782 103.757 65.1548C104.094 65.8059 101.938 66.5847 97.288 67.4913L87.9787 75.0676L84.0097 69.6704ZM33.7569 71.2663L40.7864 72.7468C33.717 86.7313 29.9258 94.1431 29.4129 94.9822C28.2586 96.8701 29.3356 100.33 29.7334 102.152C27.2378 102.769 28.2219 98.7818 25.0638 99.6143C22.1812 100.374 19.7371 102.324 17.0492 99.6942C16.7188 99.3709 16.4769 98.3603 17.6036 97.8419C20.4106 96.5505 24.5578 94.1324 25.2303 93.1936C26.1473 91.9133 28.9895 84.6042 33.7569 71.2663Z" fill="#E0AF91"/>
<path fill-rule="evenodd" clip-rule="evenodd" d="M59.8921 43.3492L62.8585 42.8091C69.3194 49.4618 71.956 65.4448 76.2618 67.5604C80.3327 69.5606 86.1035 67.625 92.963 65.0115L95.0637 69.9935C88.8312 77.1509 75.5535 83.1977 70.1714 79.7457C61.5667 74.2266 59.5802 54.514 59.8921 43.3492Z" fill="#CC99CA"/>
<path fill-rule="evenodd" clip-rule="evenodd" d="M46.9612 82.9185C58.855 82.9185 67.6039 82.9185 73.2078 82.9185C74.4071 82.9185 74.1812 81.0802 74.0078 80.1526C72.0069 69.447 64.196 57.9069 64.196 42.6678L56.6253 41.4076C50.3633 52.0979 48.1978 65.2598 46.9612 82.9185Z" fill="#DDE3E9"/>
<path fill-rule="evenodd" clip-rule="evenodd" d="M44.3433 72.0795C38.9928 82.3242 34.4953 89.6998 30.851 94.2065L25.3495 93.0627C28.8933 69.7336 39.1558 52.5152 56.1369 41.4076H56.2233L59.1345 41.4076C65.931 65.9999 67.8047 82.3857 64.7555 90.5652H41.1295C41.5032 84.5802 42.7018 78.2508 44.3433 72.0795H44.3433Z" fill="#CB9CCC"/>
</svg>
