<svg width="190" height="218" viewBox="0 0 190 218" fill="none" xmlns="http://www.w3.org/2000/svg">
<path fill-rule="evenodd" clip-rule="evenodd" d="M116.595 101.617C113.057 110.798 53.0961 123.45 52.5675 124.14C52.3326 124.446 54.5479 136.936 59.2134 161.61L54.237 161.802C44.1174 134.168 39.8395 119.263 41.4032 117.085C43.6421 113.967 60.3867 106.433 91.6371 94.4817L116.595 101.617Z" fill="#B28B67"/>
<path fill-rule="evenodd" clip-rule="evenodd" d="M59.4288 156.406L51.3494 156.564C40.105 136.94 37.5944 122.712 40.5522 116.692C42.524 112.679 59.2168 105.151 90.6305 94.106L117.12 101.794C109.888 123.336 57.0761 125.538 56.1628 126.281C55.2495 127.023 58.9424 137.961 59.4288 156.406Z" fill="#383D69"/>
<path fill-rule="evenodd" clip-rule="evenodd" d="M60.9478 161.408C61.6166 162.658 61.9912 163.595 62.0714 164.219C62.1691 164.978 62.1753 166.087 62.0902 167.546C61.1419 167.559 52.619 167.67 36.5216 167.881C35.5949 165.851 35.8368 164.745 37.2475 164.563C38.6581 164.382 39.8284 164.22 40.7584 164.076L52.0099 159.003C52.2264 158.905 52.5066 158.997 52.6359 159.208C52.6381 159.211 52.6403 159.215 52.6424 159.219L53.6275 160.929C55.0266 161.486 56.1404 161.758 56.9689 161.748C57.6421 161.739 58.5393 161.474 59.6605 160.954L59.6605 160.954C60.0908 160.754 60.6528 160.933 60.9158 161.353C60.9272 161.371 60.9378 161.389 60.9478 161.408Z" fill="#A36565"/>
<path fill-rule="evenodd" clip-rule="evenodd" d="M110.626 99.8842L119.96 154.123L131.029 200.9L125.666 199.343L92.4476 94.6083L110.626 99.8842Z" fill="#997659"/>
<path fill-rule="evenodd" clip-rule="evenodd" d="M131.877 199.176C132.044 200.468 132.045 201.399 131.88 201.968C131.679 202.661 131.251 203.632 130.597 204.883C129.662 204.612 121.26 202.173 105.389 197.567C105.274 195.516 105.944 194.621 107.398 194.882C108.853 195.143 110.064 195.35 111.032 195.501L124.051 194.413C124.302 194.392 124.541 194.556 124.585 194.779C124.586 194.783 124.587 194.786 124.587 194.79L124.885 196.579C126.039 197.482 127.025 198.052 127.842 198.289C128.506 198.481 129.489 198.517 130.792 198.396L130.792 198.396C131.292 198.349 131.774 198.673 131.867 199.118C131.871 199.137 131.875 199.156 131.877 199.176Z" fill="#A77878"/>
<path fill-rule="evenodd" clip-rule="evenodd" d="M131.399 191.957L118.927 190.412C113.079 176.142 88.3181 117.407 90.514 94.0472L117.042 101.746C126.517 121.844 126.037 177.621 131.399 191.957Z" fill="#363A5E"/>
<path fill-rule="evenodd" clip-rule="evenodd" d="M115.518 51.2787C117.512 49.2423 118.839 46.6516 118.551 43.5974C117.723 34.7973 104.6 35.599 102.124 39.7938C99.647 43.9886 100.162 55.2084 103.485 56.2791C104.811 56.7061 107.607 56.1752 110.437 54.8243L108.863 66.4199L119.465 67.3236L115.518 51.2787Z" fill="#B28B67"/>
<path fill-rule="evenodd" clip-rule="evenodd" d="M101.206 41.7689C101.306 41.2027 101.562 40.5856 101.767 40.0589C102.033 39.3799 102.44 38.7813 102.889 38.2225C103.735 37.1704 104.754 36.241 105.883 35.4925C107.944 34.1255 110.582 33.4544 113.191 33.9534C114.509 34.2053 115.791 34.7628 116.888 35.6065C117.879 36.3687 118.836 37.4502 120.109 37.6255C121.493 37.8162 122.747 36.8143 123.848 36.222C125.09 35.5543 126.413 35.1017 127.873 35.0024C130.318 34.8362 132.628 35.7715 134.34 37.7264C136.161 39.8068 137.504 42.75 136.357 45.2178C136.144 45.6765 135.867 46.0554 135.466 46.3555C135.099 46.6307 134.536 46.9096 134.392 47.3852C134.238 47.8908 134.725 48.5985 134.916 49.0815C135.19 49.7734 135.417 50.4947 135.349 51.2171C135.237 52.4035 134.42 53.4784 133.553 54.1938C132.67 54.9217 131.576 55.2915 130.405 55.4079C129.623 55.4856 128.822 55.4985 128.025 55.3809C127.629 55.3225 127.278 55.1948 126.894 55.0846C126.52 54.9775 126.313 55.0502 125.999 55.2094C124.541 55.9495 122.966 56.1538 121.268 55.8885C119.835 55.6645 118.181 55.2169 117.002 54.2348C115.692 53.1441 115.7 51.7873 115.987 50.36C115.665 50.4788 114.772 50.496 115.299 49.9615C115.508 49.7498 115.907 49.6892 116.177 49.5766C116.491 49.4455 116.81 49.269 117.052 49.0333C118.031 48.0815 117.002 45.8995 115.751 45.4522C113.892 44.7877 113.507 47.124 112.193 47.6298C111.437 47.9206 110.636 47.3743 110.06 46.8362C109.288 46.1154 108.757 45.2002 108.296 44.2754C107.917 43.5138 107.563 42.744 107.177 41.9854C106.997 41.6312 106.375 40.6208 106.676 40.2612C105.346 39.9143 103.875 40.2932 102.74 40.8547C102.272 41.0868 101.915 41.3557 101.67 41.8126C101.617 41.9105 101.503 42.2051 101.356 42.2056C101.082 42.2065 101.18 41.9112 101.206 41.7689Z" fill="#191847"/>
<path fill-rule="evenodd" clip-rule="evenodd" d="M74.9399 85.8267L58.231 90.9281C54.1122 90.7609 50.5731 90.9894 47.6135 91.6136C46.8703 91.9265 45.8673 92.6984 48.4617 93.2317C51.0561 93.7651 53.7676 94.4271 53.92 95.2725C54.0724 96.1179 52.2912 96.5882 52.7333 97.794C53.028 98.5979 55.7173 97.5263 60.8013 94.5795L76.3097 93.4244L74.9399 85.8267ZM129.766 101.26L120.389 98.7115C121.892 116.38 122.744 125.769 122.943 126.88C123.391 129.378 120.298 132.144 118.876 133.697C121.62 135.717 122.456 131.266 125.902 133.872C129.047 136.252 131.045 139.544 135.688 138.504C136.259 138.376 137.073 137.527 135.957 136.381C133.177 133.525 129.331 128.808 128.987 127.51C128.519 125.739 128.779 116.989 129.766 101.26Z" fill="#B28B67"/>
<path fill-rule="evenodd" clip-rule="evenodd" d="M112.131 60.2649L108.409 58.6271C91.1955 65.3397 79.833 84.2139 59.3244 90.2218L62.3615 95.9068C93.7893 101.071 108.023 78.1527 112.131 60.2649Z" fill="#E87613"/>
<path fill-rule="evenodd" clip-rule="evenodd" d="M117.903 106.736C102.384 102.462 90.968 99.3181 83.656 97.3044C82.0911 96.8735 82.9036 95.0112 83.391 94.0928C89.0162 83.4932 102.457 74.0991 106.748 57.9874L116.981 59.3755C122.142 72.9281 121.262 87.6217 117.903 106.736Z" fill="#DDE3E9"/>
<path fill-rule="evenodd" clip-rule="evenodd" d="M126.378 73.865C127.906 73.9053 129.262 73.3909 130.446 72.3218C135.546 67.7133 135.065 64.2699 131.478 62.1939C127.891 60.1179 123.896 61.2592 117.751 59.567C117.417 59.4749 117.106 59.4087 116.818 59.3682L113.687 58.6687C97.9319 82.0847 90.8913 98.6633 92.5652 108.405L119.507 115.824C120.25 119.466 121.06 122.581 121.937 125.169L129.278 127.191C135.087 108.162 134.121 90.3863 126.378 73.865Z" fill="#FF9B21"/>
<path fill-rule="evenodd" clip-rule="evenodd" d="M117.162 100.903C114.69 106.77 112.133 110.818 109.492 113.047L119.493 115.801C118.626 111.552 117.849 106.586 117.162 100.903V100.903Z" fill="black" fill-opacity="0.1"/>
</svg>
